<svg width="30" height="30" viewBox="0 0 30 30" fill="none" xmlns="http://www.w3.org/2000/svg">
<path d="M17.3752 27.5C17.1047 27.5 16.8415 27.4123 16.6252 27.25L11.6252 23.4375C11.4722 23.3198 11.3486 23.1682 11.264 22.9947C11.1795 22.8212 11.1362 22.6305 11.1377 22.4375V18.35L5.13766 6.825C5.03885 6.63427 4.99086 6.42129 4.99831 6.20661C5.00577 5.99193 5.06842 5.78279 5.18023 5.59937C5.29204 5.41595 5.44923 5.26444 5.63664 5.15946C5.82405 5.05447 6.03535 4.99956 6.25016 5H23.7502C23.9671 5.00004 24.1803 5.05653 24.3688 5.16392C24.5572 5.27131 24.7145 5.42591 24.8252 5.6125C24.9349 5.80253 24.9926 6.01808 24.9926 6.2375C24.9926 6.45692 24.9349 6.67248 24.8252 6.8625L18.5752 18.375V26.25C18.5768 26.483 18.5133 26.7117 18.3918 26.9105C18.2703 27.1093 18.0957 27.2702 17.8877 27.375C17.7277 27.4527 17.5529 27.4953 17.3752 27.5ZM13.6252 21.825L16.1252 23.7375V18.05C16.1244 17.8595 16.1671 17.6714 16.2502 17.5L21.6252 7.5H8.30016L13.4627 17.5C13.5538 17.6779 13.601 17.8751 13.6002 18.075L13.6252 21.825Z" fill="#1C2B38"/>
</svg>
