<svg width="18" height="18" viewBox="0 0 18 18" fill="none" xmlns="http://www.w3.org/2000/svg">
<path fill-rule="evenodd" clip-rule="evenodd" d="M8.02746 5.6595C8.35728 5.72169 8.66647 5.86485 8.92726 6.07611C9.18805 6.28738 9.39226 6.56013 9.52154 6.86986C9.65083 7.17958 9.70113 7.51658 9.66793 7.85056C9.63473 8.18454 9.51907 8.50504 9.33134 8.78325L14.5191 12.81C14.688 12.7225 14.8816 12.6946 15.0684 12.731C15.2552 12.7673 15.4242 12.8657 15.548 13.0102C15.6718 13.1548 15.7431 13.3369 15.7504 13.527C15.7576 13.7172 15.7004 13.9042 15.5879 14.0577C15.4755 14.2112 15.3145 14.3222 15.131 14.3727C14.9476 14.4232 14.7524 14.4102 14.5773 14.3357C14.4021 14.2613 14.2573 14.1299 14.1663 13.9628C14.0753 13.7957 14.0434 13.6027 14.0758 13.4152L8.79959 9.3195C8.55113 9.48976 8.26782 9.60246 7.97029 9.64937C7.67277 9.69629 7.36853 9.67624 7.07973 9.59069C6.79093 9.50514 6.52486 9.35625 6.30089 9.15485C6.07692 8.95346 5.9007 8.70464 5.78506 8.42652C5.66943 8.1484 5.61729 7.84799 5.63245 7.54717C5.64761 7.24635 5.72968 6.9527 5.87269 6.68762C6.0157 6.42253 6.21605 6.19269 6.45913 6.01483C6.70221 5.83697 6.98191 5.71558 7.27784 5.6595L7.27709 2.25H8.02709V5.6595H8.02746ZM8.32709 7.65C8.32709 7.73864 8.30963 7.82642 8.27571 7.90831C8.24179 7.99021 8.19207 8.06462 8.12939 8.1273C8.06671 8.18998 7.99229 8.2397 7.9104 8.27362C7.8285 8.30754 7.74073 8.325 7.65209 8.325C7.56345 8.325 7.47567 8.30754 7.39378 8.27362C7.31188 8.2397 7.23747 8.18998 7.17479 8.1273C7.11211 8.06462 7.06239 7.99021 7.02847 7.90831C6.99455 7.82642 6.97709 7.73864 6.97709 7.65C6.97709 7.47098 7.0482 7.29929 7.17479 7.1727C7.30138 7.04612 7.47307 6.975 7.65209 6.975C7.83111 6.975 8.0028 7.04612 8.12939 7.1727C8.25597 7.29929 8.32709 7.47098 8.32709 7.65Z" fill="#7BBCB0"/>
<path d="M10.361 7.64404C10.3611 7.12533 10.2118 6.61755 9.93097 6.18143C9.65013 5.74532 9.24963 5.39931 8.77734 5.18479V2.28979C10.3857 2.43117 11.2212 2.93779 11.9693 3.63117C12.0068 3.66642 12.0443 3.70054 12.0803 3.73354V3.73392C12.3991 4.02642 12.6526 4.25929 12.7835 4.60804L14.3712 8.83504C14.4138 8.9485 14.4282 9.07058 14.4132 9.19082C14.3983 9.31106 14.3544 9.42589 14.2853 9.52546C14.2163 9.62504 14.1241 9.70639 14.0168 9.76254C13.9094 9.8187 13.79 9.848 13.6688 9.84792H13.0572V10.725L10.2166 8.51892C10.3128 8.2374 10.3617 7.94191 10.3613 7.64442L10.361 7.64404Z" fill="#7BBCB0"/>
<path d="M6.52759 5.19227V2.34039C3.15634 2.84777 2.25146 5.36289 2.25146 6.74064C2.25146 8.90327 3.63259 10.5806 4.28021 11.253V15.75H10.6972V13.308H12.3071C12.4203 13.308 12.5283 13.2825 12.6243 13.2375L8.65496 10.155C7.9989 10.4258 7.26262 10.4273 6.60544 10.1593C5.94826 9.89127 5.42303 9.37529 5.14341 8.72297C4.86378 8.07065 4.85224 7.33446 5.11128 6.6737C5.37033 6.01293 5.87913 5.48074 6.52759 5.19227Z" fill="#7BBCB0"/>
</svg>
