<svg width="17" height="16" viewBox="0 0 17 16" fill="none" xmlns="http://www.w3.org/2000/svg">
<path d="M9.29989 15.108C9.37607 15.0596 11.1692 13.9141 12.9839 12.2531M9.29989 15.108L1.39013 3.97185C1.59889 3.49065 1.901 3.05426 2.27972 2.68761L2.27972 2.68762L2.28109 2.68629C2.66418 2.31399 3.10936 2.02205 3.60495 1.81846L3.60603 1.81801C4.11827 1.60689 4.6606 1.50001 5.2252 1.50001C6.00687 1.50001 6.76717 1.71233 7.42643 2.11138L7.42646 2.1114C7.58419 2.20687 7.73325 2.31124 7.87399 2.42451L8.50097 2.92911L9.12794 2.42451C9.26869 2.31124 9.41774 2.20687 9.57547 2.1114L9.5755 2.11138C10.2348 1.71233 10.9951 1.50001 11.7767 1.50002L11.779 1.50001C12.3341 1.49874 12.8837 1.6069 13.3959 1.81801L13.3972 1.81854C13.8907 2.02114 14.3399 2.31575 14.7205 2.68599L14.7213 2.68677C15.0999 3.05418 15.4023 3.49087 15.6119 3.97219M9.29989 15.108L8.83694 15.4026M9.29989 15.108H7.70009L8.16304 15.4026M12.9839 12.2531C14.0778 11.251 14.9587 10.2626 15.5994 9.31481M12.9839 12.2531L12.3084 11.5157M12.9839 12.2531L12.3087 11.5154C12.3086 11.5155 12.3085 11.5156 12.3084 11.5157M15.5994 9.31481C16.0038 8.71592 16.3222 8.12284 16.5409 7.55108C16.8047 6.8669 16.9375 6.19436 16.9375 5.54895C16.9394 4.86477 16.8007 4.19998 16.5292 3.57395L15.6118 3.97185C15.6118 3.97196 15.6119 3.97208 15.6119 3.97219M15.5994 9.31481L14.771 8.75477C14.7709 8.75488 14.7708 8.755 14.7707 8.75511M15.5994 9.31481L14.7706 8.75525M15.6119 3.97219C15.8291 4.47305 15.939 5.0014 15.9375 5.54609V5.54895C15.9375 6.05634 15.8331 6.60708 15.6079 7.19143L15.607 7.19371C15.4206 7.6808 15.1413 8.20628 14.7707 8.75511M15.6119 3.97219L14.7707 8.75511M14.7707 8.75511L14.7706 8.75525M14.7706 8.75525C14.1849 9.62169 13.3609 10.5516 12.3084 11.5157M14.7706 8.75525L8.49999 14.4317M12.3084 11.5157C10.5566 13.1191 8.81965 14.2283 8.76321 14.2642L8.76301 14.2643L8.49999 14.4317M8.49999 14.4317L8.23697 14.2643L8.22914 14.2594L8.22122 14.2545C8.22175 14.2548 8.11012 14.1844 7.90703 14.0472C7.70871 13.9133 7.43064 13.7206 7.09914 13.4785C6.43461 12.9931 5.56328 12.3145 4.69166 11.5158L4.69155 11.5157C3.63895 10.5515 2.81493 9.62147 2.22912 8.75494L8.49999 14.4317ZM8.49999 14.4317L8.69797 14.5577M8.49999 14.4317L8.30201 14.5577M8.69797 14.5577C8.57643 14.4808 8.42355 14.4808 8.30201 14.5577M8.69797 14.5577L8.49999 14.8704L8.30201 14.5577M8.69797 14.5577L8.69991 14.5589L8.50085 14.8718L8.83694 15.4026M8.30201 14.5577L8.30007 14.5589L8.49913 14.8718L8.16304 15.4026M8.83694 15.4026L8.49999 14.8731L8.16304 15.4026M8.83694 15.4026C8.63184 15.5325 8.36814 15.5325 8.16304 15.4026M1.0625 5.54895C1.0625 5.00223 1.17286 4.47284 1.3901 3.97193L1.39193 7.19093C1.16683 6.60676 1.0625 6.05619 1.0625 5.54895ZM2.229 8.75477C1.8599 8.208 1.58146 7.68175 1.39212 7.19144L2.229 8.75477Z" stroke="#778088" stroke-width="2"/>
</svg>
