<svg width="16" height="16" viewBox="0 0 16 16" fill="none" xmlns="http://www.w3.org/2000/svg">
<path d="M3.75737 3.75731C4.31452 3.20015 4.97596 2.75819 5.70392 2.45666C6.43188 2.15513 7.2121 1.99994 8.00004 1.99994C8.78797 1.99994 9.56819 2.15513 10.2962 2.45666C11.0241 2.75819 11.6855 3.20015 12.2427 3.75731C12.7999 4.31446 13.2418 4.9759 13.5433 5.70386C13.8449 6.43182 14.0001 7.21204 14.0001 7.99998C14.0001 8.78791 13.8449 9.56813 13.5433 10.2961C13.2418 11.024 12.7999 11.6855 12.2427 12.2426C11.1175 13.3679 9.59135 14 8.00004 14C6.40873 14 4.8826 13.3679 3.75737 12.2426C2.63214 11.1174 2 9.59128 2 7.99998C2 6.40867 2.63214 4.88253 3.75737 3.75731V3.75731Z" stroke="#7BBCB0" stroke-width="1.8" stroke-linecap="round"/>
<path d="M4 4L12 12" stroke="#7BBCB0" stroke-width="1.8" stroke-linecap="round"/>
</svg>
